<svg width="579" height="105" viewBox="0 0 579 105" fill="none" xmlns="http://www.w3.org/2000/svg">
<path d="M85.9799 50.21H86.2299V49.96V44.45H91.7399H91.9899V44.2V38.69H97.4999H97.7499V38.44V12.52V12.27H97.4999H91.9899V6.76V6.51H91.7399H86.2299V1V0.75H85.9799H62.9399H62.6899V1V6.51H57.1799H56.9299V6.76V12.27H51.4199H51.1699V12.52V38.44V38.69H51.4199H56.9299V44.2V44.45H57.1799H62.6899V49.96V50.21H62.9399H85.9799ZM57.4299 38.19V12.77H62.9399H63.1899V12.52V7.01H85.7299V12.52V12.77H85.9799H91.4899V38.19H85.9799H85.7299V38.44V43.95H63.1899V38.44V38.19H62.9399H57.4299Z" fill="black" stroke="black" stroke-width="0.5"/>
<path d="M35.56 50.21H35.81V49.96V44.45H41.32H41.57V44.2V38.69H47.08H47.33V38.44V12.52V12.27H47.08H41.57V6.76V6.51H41.32H35.81V1V0.75H35.56H12.52H12.27V1V6.51H6.76H6.51V6.76V12.27H1H0.75V12.52V38.44V38.69H1H6.51V44.2V44.45H6.76H12.27V49.96V50.21H12.52H35.56ZM7.01 38.19V12.77H12.52H12.77V12.52V7.01H35.31V12.52V12.77H35.56H41.07V38.19H35.56H35.31V38.44V43.95H12.77V38.44V38.19H12.52H7.01Z" fill="black" stroke="black" stroke-width="0.5"/>
<path d="M85.9799 104.21H86.2299V103.96V98.45H91.7399H91.9899V98.2V92.69H97.4999H97.7499V92.44V66.52V66.27H97.4999H91.9899V60.76V60.51H91.7399H86.2299V55V54.75H85.9799H62.9399H62.6899V55V60.51H57.1799H56.9299V60.76V66.27H51.4199H51.1699V66.52V92.44V92.69H51.4199H56.9299V98.2V98.45H57.1799H62.6899V103.96V104.21H62.9399H85.9799ZM57.4299 92.19V66.77H62.9399H63.1899V66.52V61.01H85.7299V66.52V66.77H85.9799H91.4899V92.19H85.9799H85.7299V92.44V97.95H63.1899V92.44V92.19H62.9399H57.4299Z" fill="black" stroke="black" stroke-width="0.5"/>
<path d="M35.56 104.21H35.81V103.96V98.45H41.32H41.57V98.2V92.69H47.08H47.33V92.44V66.52V66.27H47.08H41.57V60.76V60.51H41.32H35.81V55V54.75H35.56H12.52H12.27V55V60.51H6.76H6.51V60.76V66.27H1H0.75V66.52V92.44V92.69H1H6.51V98.2V98.45H6.76H12.27V103.96V104.21H12.52H35.56ZM7.01 92.19V66.77H12.52H12.77V66.52V61.01H35.31V66.52V66.77H35.56H41.07V92.19H35.56H35.31V92.44V97.95H12.77V92.44V92.19H12.52H7.01Z" fill="black" stroke="black" stroke-width="0.5"/>
<path d="M552.851 70.6793V34.2793H559.611V64.9593H578.643V70.6793H552.851Z" fill="black"/>
<path d="M510.833 70.6793L527.213 34.2793H533.869L550.301 70.6793H543.229L529.137 37.8673H531.841L517.801 70.6793H510.833ZM518.373 62.2553L520.193 56.9513H539.849L541.669 62.2553H518.373Z" fill="black"/>
<path d="M495.993 70.6793V39.9993H483.929V34.2793H514.817V39.9993H502.753V70.6793H495.993Z" fill="black"/>
<path d="M474.083 70.6793V34.2793H480.843V70.6793H474.083Z" fill="black"/>
<path d="M452.999 71.1998C450.156 71.1998 447.539 70.7491 445.147 69.8478C442.789 68.9118 440.727 67.6118 438.959 65.9478C437.191 64.2491 435.821 62.2558 434.851 59.9678C433.88 57.6798 433.395 55.1838 433.395 52.4798C433.395 49.7758 433.88 47.2798 434.851 44.9918C435.821 42.7038 437.191 40.7278 438.959 39.0638C440.761 37.3651 442.859 36.0651 445.251 35.1638C447.643 34.2278 450.26 33.7598 453.103 33.7598C456.188 33.7598 458.961 34.2624 461.423 35.2678C463.919 36.2731 466.016 37.7464 467.715 39.6878L463.451 43.8478C462.029 42.4264 460.487 41.3864 458.823 40.7278C457.193 40.0344 455.391 39.6878 453.415 39.6878C451.508 39.6878 449.74 39.9998 448.111 40.6238C446.481 41.2478 445.077 42.1318 443.899 43.2758C442.72 44.4198 441.801 45.7718 441.143 47.3318C440.519 48.8918 440.207 50.6078 440.207 52.4798C440.207 54.3171 440.519 56.0158 441.143 57.5758C441.801 59.1358 442.72 60.5051 443.899 61.6838C445.077 62.8278 446.464 63.7118 448.059 64.3358C449.653 64.9598 451.421 65.2718 453.363 65.2718C455.165 65.2718 456.899 64.9944 458.563 64.4398C460.261 63.8504 461.873 62.8798 463.399 61.5278L467.247 66.5718C465.34 68.0971 463.121 69.2584 460.591 70.0558C458.095 70.8184 455.564 71.1998 452.999 71.1998ZM460.851 65.6878V52.0638H467.247V66.5718L460.851 65.6878Z" fill="black"/>
<path d="M421.47 70.6793V34.2793H428.23V70.6793H421.47Z" fill="black"/>
<path d="M380.589 70.6793V34.2793H396.501C400.453 34.2793 403.92 35.042 406.901 36.5673C409.882 38.0926 412.205 40.2073 413.869 42.9113C415.533 45.6153 416.365 48.8046 416.365 52.4793C416.365 56.1193 415.533 59.3086 413.869 62.0473C412.205 64.7513 409.882 66.866 406.901 68.3913C403.92 69.9166 400.453 70.6793 396.501 70.6793H380.589ZM387.349 64.9593H396.189C398.928 64.9593 401.285 64.4393 403.261 63.3993C405.272 62.3593 406.814 60.9033 407.889 59.0313C408.998 57.1593 409.553 54.9753 409.553 52.4793C409.553 49.9486 408.998 47.7646 407.889 45.9273C406.814 44.0553 405.272 42.5993 403.261 41.5593C401.285 40.5193 398.928 39.9993 396.189 39.9993H387.349V64.9593Z" fill="black"/>
<path d="M343.66 71.1998C340.817 71.1998 338.2 70.7318 335.808 69.7958C333.416 68.8598 331.336 67.5598 329.568 65.8958C327.8 64.1971 326.431 62.2211 325.46 59.9678C324.489 57.6798 324.004 55.1838 324.004 52.4798C324.004 49.7758 324.489 47.2971 325.46 45.0438C326.431 42.7558 327.8 40.7798 329.568 39.1158C331.336 37.4171 333.416 36.0998 335.808 35.1638C338.2 34.2278 340.8 33.7598 343.608 33.7598C346.451 33.7598 349.051 34.2278 351.408 35.1638C353.8 36.0998 355.88 37.4171 357.648 39.1158C359.416 40.7798 360.785 42.7558 361.756 45.0438C362.727 47.2971 363.212 49.7758 363.212 52.4798C363.212 55.1838 362.727 57.6798 361.756 59.9678C360.785 62.2558 359.416 64.2318 357.648 65.8958C355.88 67.5598 353.8 68.8598 351.408 69.7958C349.051 70.7318 346.468 71.1998 343.66 71.1998ZM343.608 65.2718C345.445 65.2718 347.144 64.9598 348.704 64.3358C350.264 63.7118 351.616 62.8278 352.76 61.6838C353.904 60.5051 354.788 59.1531 355.412 57.6278C356.071 56.0678 356.4 54.3518 356.4 52.4798C356.4 50.6078 356.071 48.9091 355.412 47.3838C354.788 45.8238 353.904 44.4718 352.76 43.3278C351.616 42.1491 350.264 41.2478 348.704 40.6238C347.144 39.9998 345.445 39.6878 343.608 39.6878C341.771 39.6878 340.072 39.9998 338.512 40.6238C336.987 41.2478 335.635 42.1491 334.456 43.3278C333.312 44.4718 332.411 45.8238 331.752 47.3838C331.128 48.9091 330.816 50.6078 330.816 52.4798C330.816 54.3171 331.128 56.0158 331.752 57.5758C332.411 59.1358 333.312 60.5051 334.456 61.6838C335.6 62.8278 336.952 63.7118 338.512 64.3358C340.072 64.9598 341.771 65.2718 343.608 65.2718Z" fill="black"/>
<path d="M301.967 71.1998C299.124 71.1998 296.507 70.7318 294.115 69.7958C291.723 68.8598 289.643 67.5598 287.875 65.8958C286.107 64.1971 284.737 62.2211 283.767 59.9678C282.796 57.6798 282.311 55.1838 282.311 52.4798C282.311 49.7758 282.796 47.2971 283.767 45.0438C284.737 42.7558 286.107 40.7798 287.875 39.1158C289.643 37.4171 291.723 36.0998 294.115 35.1638C296.507 34.2278 299.107 33.7598 301.915 33.7598C304.757 33.7598 307.357 34.2278 309.715 35.1638C312.107 36.0998 314.187 37.4171 315.955 39.1158C317.723 40.7798 319.092 42.7558 320.063 45.0438C321.033 47.2971 321.519 49.7758 321.519 52.4798C321.519 55.1838 321.033 57.6798 320.063 59.9678C319.092 62.2558 317.723 64.2318 315.955 65.8958C314.187 67.5598 312.107 68.8598 309.715 69.7958C307.357 70.7318 304.775 71.1998 301.967 71.1998ZM301.915 65.2718C303.752 65.2718 305.451 64.9598 307.011 64.3358C308.571 63.7118 309.923 62.8278 311.067 61.6838C312.211 60.5051 313.095 59.1531 313.719 57.6278C314.377 56.0678 314.707 54.3518 314.707 52.4798C314.707 50.6078 314.377 48.9091 313.719 47.3838C313.095 45.8238 312.211 44.4718 311.067 43.3278C309.923 42.1491 308.571 41.2478 307.011 40.6238C305.451 39.9998 303.752 39.6878 301.915 39.6878C300.077 39.6878 298.379 39.9998 296.819 40.6238C295.293 41.2478 293.941 42.1491 292.763 43.3278C291.619 44.4718 290.717 45.8238 290.059 47.3838C289.435 48.9091 289.123 50.6078 289.123 52.4798C289.123 54.3171 289.435 56.0158 290.059 57.5758C290.717 59.1358 291.619 60.5051 292.763 61.6838C293.907 62.8278 295.259 63.7118 296.819 64.3358C298.379 64.9598 300.077 65.2718 301.915 65.2718Z" fill="black"/>
<path d="M247.432 70.6793V34.2793H264.488C268.856 34.2793 272.184 35.146 274.472 36.8793C276.76 38.578 277.904 40.866 277.904 43.7433C277.904 45.6846 277.453 47.3486 276.552 48.7353C275.65 50.0873 274.437 51.1446 272.912 51.9073C271.421 52.6353 269.792 52.9993 268.024 52.9993L268.96 51.1273C271.005 51.1273 272.842 51.5086 274.472 52.2713C276.101 52.9993 277.384 54.074 278.32 55.4953C279.29 56.9166 279.776 58.6846 279.776 60.7993C279.776 63.9193 278.58 66.346 276.188 68.0793C273.796 69.8126 270.242 70.6793 265.528 70.6793H247.432ZM254.192 65.3753H265.112C267.642 65.3753 269.584 64.9593 270.936 64.1273C272.288 63.2953 272.964 61.9606 272.964 60.1233C272.964 58.3206 272.288 57.0033 270.936 56.1713C269.584 55.3046 267.642 54.8713 265.112 54.8713H253.672V49.6193H263.76C266.117 49.6193 267.92 49.2033 269.168 48.3713C270.45 47.5393 271.092 46.2913 271.092 44.6273C271.092 42.9286 270.45 41.6633 269.168 40.8313C267.92 39.9993 266.117 39.5833 263.76 39.5833H254.192V65.3753Z" fill="black"/>
<path d="M199.848 70.6793V34.2793H205.412L221.324 60.8513H218.412L234.064 34.2793H239.628L239.68 70.6793H233.284L233.232 44.3153H234.584L221.272 66.5193H218.256L204.736 44.3153H206.296V70.6793H199.848Z" fill="black"/>
<path d="M157.831 70.6793L174.211 34.2793H180.867L197.299 70.6793H190.227L176.135 37.8673H178.839L164.799 70.6793H157.831ZM165.371 62.2553L167.191 56.9513H186.847L188.667 62.2553H165.371Z" fill="black"/>
<path d="M125.5 70.6793V34.2793H142.556C146.924 34.2793 150.252 35.146 152.54 36.8793C154.828 38.578 155.972 40.866 155.972 43.7433C155.972 45.6846 155.521 47.3486 154.62 48.7353C153.719 50.0873 152.505 51.1446 150.98 51.9073C149.489 52.6353 147.86 52.9993 146.092 52.9993L147.028 51.1273C149.073 51.1273 150.911 51.5086 152.54 52.2713C154.169 52.9993 155.452 54.074 156.388 55.4953C157.359 56.9166 157.844 58.6846 157.844 60.7993C157.844 63.9193 156.648 66.346 154.256 68.0793C151.864 69.8126 148.311 70.6793 143.596 70.6793H125.5ZM132.26 65.3753H143.18C145.711 65.3753 147.652 64.9593 149.004 64.1273C150.356 63.2953 151.032 61.9606 151.032 60.1233C151.032 58.3206 150.356 57.0033 149.004 56.1713C147.652 55.3046 145.711 54.8713 143.18 54.8713H131.74V49.6193H141.828C144.185 49.6193 145.988 49.2033 147.236 48.3713C148.519 47.5393 149.16 46.2913 149.16 44.6273C149.16 42.9286 148.519 41.6633 147.236 40.8313C145.988 39.9993 144.185 39.5833 141.828 39.5833H132.26V65.3753Z" fill="black"/>
</svg>
