<svg width="98" height="105" viewBox="0 0 98 105" fill="none" xmlns="http://www.w3.org/2000/svg">
<path d="M85.9799 50.21H86.2299V49.96V44.45H91.7399H91.9899V44.2V38.69H97.4999H97.7499V38.44V12.52V12.27H97.4999H91.9899V6.76V6.51H91.7399H86.2299V1V0.75H85.9799H62.9399H62.6899V1V6.51H57.1799H56.9299V6.76V12.27H51.4199H51.1699V12.52V38.44V38.69H51.4199H56.9299V44.2V44.45H57.1799H62.6899V49.96V50.21H62.9399H85.9799ZM57.4299 38.19V12.77H62.9399H63.1899V12.52V7.01H85.7299V12.52V12.77H85.9799H91.4899V38.19H85.9799H85.7299V38.44V43.95H63.1899V38.44V38.19H62.9399H57.4299Z" fill="black" stroke="black" stroke-width="0.5"/>
<path d="M35.56 50.21H35.81V49.96V44.45H41.32H41.57V44.2V38.69H47.08H47.33V38.44V12.52V12.27H47.08H41.57V6.76V6.51H41.32H35.81V1V0.75H35.56H12.52H12.27V1V6.51H6.76H6.51V6.76V12.27H1H0.75V12.52V38.44V38.69H1H6.51V44.2V44.45H6.76H12.27V49.96V50.21H12.52H35.56ZM7.01 38.19V12.77H12.52H12.77V12.52V7.01H35.31V12.52V12.77H35.56H41.07V38.19H35.56H35.31V38.44V43.95H12.77V38.44V38.19H12.52H7.01Z" fill="black" stroke="black" stroke-width="0.5"/>
<path d="M85.9799 104.21H86.2299V103.96V98.45H91.7399H91.9899V98.2V92.69H97.4999H97.7499V92.44V66.52V66.27H97.4999H91.9899V60.76V60.51H91.7399H86.2299V55V54.75H85.9799H62.9399H62.6899V55V60.51H57.1799H56.9299V60.76V66.27H51.4199H51.1699V66.52V92.44V92.69H51.4199H56.9299V98.2V98.45H57.1799H62.6899V103.96V104.21H62.9399H85.9799ZM57.4299 92.19V66.77H62.9399H63.1899V66.52V61.01H85.7299V66.52V66.77H85.9799H91.4899V92.19H85.9799H85.7299V92.44V97.95H63.1899V92.44V92.19H62.9399H57.4299Z" fill="black" stroke="black" stroke-width="0.5"/>
<path d="M35.56 104.21H35.81V103.96V98.45H41.32H41.57V98.2V92.69H47.08H47.33V92.44V66.52V66.27H47.08H41.57V60.76V60.51H41.32H35.81V55V54.75H35.56H12.52H12.27V55V60.51H6.76H6.51V60.76V66.27H1H0.75V66.52V92.44V92.69H1H6.51V98.2V98.45H6.76H12.27V103.96V104.21H12.52H35.56ZM7.01 92.19V66.77H12.52H12.77V66.52V61.01H35.31V66.52V66.77H35.56H41.07V92.19H35.56H35.31V92.44V97.95H12.77V92.44V92.19H12.52H7.01Z" fill="black" stroke="black" stroke-width="0.5"/>
</svg>
