<svg width="424" height="40" viewBox="0 0 424 40" fill="none" xmlns="http://www.w3.org/2000/svg">
<path d="M28.8682 28.028C28.8682 34.944 23.7722 39 15.5562 39H0.944176V1.664H14.9842C22.8362 1.664 27.6722 5.2 27.6722 11.596C27.6722 15.028 25.7482 17.784 22.4202 19.5C26.5802 20.956 28.8682 23.92 28.8682 28.028ZM14.3602 7.904H8.12018V16.588H14.3602C18.2082 16.588 20.1842 14.924 20.1842 12.22C20.1842 9.568 18.2082 7.904 14.3602 7.904ZM14.9322 22.88H8.12018V32.76H14.9322C19.1962 32.76 21.4322 30.888 21.4322 27.716C21.4322 24.752 19.1962 22.88 14.9322 22.88ZM56.6289 39L53.8209 30.992H39.3129L36.4529 39H28.4969L42.5369 1.664H51.1689L65.1049 39H56.6289ZM46.6449 10.296L41.5489 24.7H51.6369L46.6449 10.296ZM84.5252 39L74.7492 14.196V39H67.5732V1.664H77.0372L87.8532 29.328L98.7212 1.664H108.185V39H101.009V13.988L91.1292 39H84.5252ZM141.659 28.028C141.659 34.944 136.563 39 128.347 39H113.735V1.664H127.775C135.627 1.664 140.463 5.2 140.463 11.596C140.463 15.028 138.539 17.784 135.211 19.5C139.371 20.956 141.659 23.92 141.659 28.028ZM127.151 7.904H120.911V16.588H127.151C130.999 16.588 132.975 14.924 132.975 12.22C132.975 9.568 130.999 7.904 127.151 7.904ZM127.723 22.88H120.911V32.76H127.723C131.987 32.76 134.223 30.888 134.223 27.716C134.223 24.752 131.987 22.88 127.723 22.88ZM162.63 39.78C151.866 39.78 143.546 31.46 143.546 20.28C143.546 9.1 151.866 0.883998 162.63 0.883998C173.446 0.883998 181.818 9.1 181.818 20.28C181.818 31.46 173.446 39.78 162.63 39.78ZM162.63 32.708C169.494 32.708 173.654 27.144 173.654 20.28C173.654 13.416 169.494 7.956 162.63 7.956C155.818 7.956 151.658 13.416 151.658 20.28C151.658 27.144 155.818 32.708 162.63 32.708ZM202.089 39.78C191.325 39.78 183.005 31.46 183.005 20.28C183.005 9.1 191.325 0.883998 202.089 0.883998C212.905 0.883998 221.277 9.1 221.277 20.28C221.277 31.46 212.905 39.78 202.089 39.78ZM202.089 32.708C208.953 32.708 213.113 27.144 213.113 20.28C213.113 13.416 208.953 7.956 202.089 7.956C195.277 7.956 191.117 13.416 191.117 20.28C191.117 27.144 195.277 32.708 202.089 32.708ZM246.695 39H233.435V1.664H246.695C258.551 1.664 265.727 9.256 265.727 20.124C265.727 30.992 258.291 39 246.695 39ZM241.339 8.476V32.188H246.279C253.715 32.188 257.615 27.872 257.615 20.124C257.615 12.688 253.715 8.476 246.279 8.476H241.339ZM277.04 39H269.136V1.664H277.04V39ZM299.651 39.78C288.835 39.78 280.411 31.72 280.411 20.176C280.411 9.152 288.419 0.883998 299.339 0.883998C308.803 0.883998 315.563 6.5 318.007 14.612H308.699C307.555 10.816 304.123 7.956 299.131 7.956C293.099 7.956 288.523 12.376 288.523 20.384C288.523 27.56 292.527 33.072 300.015 33.072C305.527 33.072 309.011 29.796 310.051 25.168H299.235V18.876H318.475C318.943 31.044 311.559 39.78 299.651 39.78ZM329.806 39H321.902V1.664H329.806V39ZM352.053 39H344.149V8.788H332.397V1.664H363.857V8.788H352.053V39ZM388.253 39L385.445 30.992H370.937L368.077 39H360.121L374.161 1.664H382.793L396.729 39H388.253ZM378.269 10.296L373.173 24.7H383.261L378.269 10.296ZM423.325 39H399.197V1.664H407.101V31.876H423.325V39Z" fill="white"/>
</svg>
